<mxfile host="app.diagrams.net" agent="Mozilla/5.0 (Windows NT 10.0; Win64; x64) AppleWebKit/537.36 (KHTML, like Gecko) Chrome/134.0.0.0 Safari/537.36" version="26.1.1">
  <diagram name="to-be" id="-FQbQIRzEgXYEJ3rUFKh">
    <mxGraphModel grid="1" page="1" gridSize="10" guides="1" tooltips="1" connect="1" arrows="1" fold="1" pageScale="1" pageWidth="1169" pageHeight="1654" math="0" shadow="0">
      <root>
        <mxCell id="0" />
        <mxCell id="1" parent="0" />
        <mxCell id="dOKFS4jaDPH2xterbuno-1" value="&lt;div style=&quot;font-size: 1px&quot;&gt;&lt;font style=&quot;font-size: 22.58px; font-family: Arial; color: rgb(0, 0, 0); direction: ltr; letter-spacing: 0px; line-height: 120%; opacity: 1;&quot;&gt;GSLB&lt;br&gt;&lt;/font&gt;&lt;/div&gt;" style="verticalAlign=bottom;align=center;overflow=width;vsdxID=5;fillColor=#e3ebff;gradientColor=none;shape=stencil(vVNBDsIgEHwNRwxCjHqu+g9iaUtEaBa09fdSwdpi9dBDb8vOwOwsGcQyW/FaIEqsA3MRjcxdhdgBUSp1JUA6XyF2RCwrDIgSzE3n4VzzjtlVV3PvXmjDPdLdoOQRTrvtavNqnAKXw9mDELkBIhDJaxrJZIy/YRLfbjFvpcVgHHfS6JGu4lAK7GVwoXg5gmwjRP3VjoMpqQcm9tPKs0z0Y6crWcBHqt0PN8tJspXFfmNKdpaBH8tYwML/VPjiE6dCKhXSOMTT+PlWiC47PgE=);strokeColor=none;spacingTop=-3;spacingBottom=-3;spacingLeft=-3;spacingRight=-3;points=[];labelBackgroundColor=none;rounded=0;html=1;whiteSpace=wrap;container=0;" vertex="1" parent="1">
          <mxGeometry x="810.22" y="195" width="210" height="80" as="geometry" />
        </mxCell>
        <mxCell id="Zcm5tQwCMB2YyKj0-IPv-7" value="&lt;div style=&quot;font-size: 1px&quot;&gt;&lt;font style=&quot;font-size: 22.58px; font-family: Arial; color: rgb(0, 0, 0); direction: ltr; letter-spacing: 0px; line-height: 120%; opacity: 1;&quot;&gt;ЦОД 1&lt;/font&gt;&lt;/div&gt;" style="verticalAlign=bottom;align=center;overflow=width;vsdxID=5;fillColor=#e3ebff;gradientColor=none;shape=stencil(vVNBDsIgEHwNRwxCjHqu+g9iaUtEaBa09fdSwdpi9dBDb8vOwOwsGcQyW/FaIEqsA3MRjcxdhdgBUSp1JUA6XyF2RCwrDIgSzE3n4VzzjtlVV3PvXmjDPdLdoOQRTrvtavNqnAKXw9mDELkBIhDJaxrJZIy/YRLfbjFvpcVgHHfS6JGu4lAK7GVwoXg5gmwjRP3VjoMpqQcm9tPKs0z0Y6crWcBHqt0PN8tJspXFfmNKdpaBH8tYwML/VPjiE6dCKhXSOMTT+PlWiC47PgE=);strokeColor=none;spacingTop=-3;spacingBottom=-3;spacingLeft=-3;spacingRight=-3;points=[];labelBackgroundColor=none;rounded=0;html=1;whiteSpace=wrap;container=0;" vertex="1" parent="1">
          <mxGeometry x="170" y="510" width="420" height="640" as="geometry" />
        </mxCell>
        <mxCell id="Zcm5tQwCMB2YyKj0-IPv-33" style="edgeStyle=orthogonalEdgeStyle;rounded=0;orthogonalLoop=1;jettySize=auto;html=1;" edge="1" parent="1" source="Zcm5tQwCMB2YyKj0-IPv-16" target="Zcm5tQwCMB2YyKj0-IPv-27">
          <mxGeometry relative="1" as="geometry" />
        </mxCell>
        <mxCell id="Zcm5tQwCMB2YyKj0-IPv-16" value="&lt;div style=&quot;font-size: 1px&quot;&gt;&lt;font style=&quot;font-size:22.58px;font-family:Arial;color:#000000;direction:ltr;letter-spacing:0px;line-height:120%;opacity:1&quot;&gt;InsureTech&lt;/font&gt;&lt;/div&gt;&lt;div style=&quot;font-size: 1px&quot;&gt;&lt;font style=&quot;font-size:22.58px;font-family:Arial;color:#000000;direction:ltr;letter-spacing:0px;line-height:120%;opacity:1&quot;&gt;namespace&lt;/font&gt;&lt;/div&gt;" style="verticalAlign=bottom;align=center;overflow=width;vsdxID=6;fillColor=none;gradientColor=none;strokeColor=none;spacingTop=-3;spacingBottom=-3;spacingLeft=-3;spacingRight=-3;points=[];labelBackgroundColor=none;rounded=0;html=1;whiteSpace=wrap;container=0;" vertex="1" parent="1">
          <mxGeometry x="360" y="610" width="130" height="54" as="geometry" />
        </mxCell>
        <mxCell id="Zcm5tQwCMB2YyKj0-IPv-27" style="vsdxID=5;fillColor=none;gradientColor=none;shape=stencil(vVPLEoIgFP0aljgEVuPa6j+YRGUica6U9vdhUKk4LWzG3X0cOPdcOIilTclrgShpDOiLaGVmSsQOiFJZlQKksRFiR8TSXIMoQN+qzOU175F9dNX3/obOnSP9CUoeLktIFL8KJ4flcLZN8NhtRJiDwxsf7VwhQHjAhniCDvNONhi04UbqakSuOBQCWy6cK16MWk0rRB2U/XRKVgMlSRwl+1nyhWI+s0+Xs4KYgNvPtlBKuJvVniX4En+9yfxWVpDx2yc2+Bosl0o5fw77U0PakjMzOz4B);strokeColor=#ff5958;spacingTop=-3;spacingBottom=-3;spacingLeft=-3;spacingRight=-3;points=[];labelBackgroundColor=none;rounded=0;html=1;whiteSpace=wrap;container=0;" vertex="1" parent="1">
          <mxGeometry x="360" y="744.11" width="130" height="105.5" as="geometry" />
        </mxCell>
        <mxCell id="Zcm5tQwCMB2YyKj0-IPv-28" value="&lt;div style=&quot;&quot;&gt;&lt;font style=&quot;font-size: 18px;&quot;&gt;HAProxy&lt;/font&gt;&lt;/div&gt;" style="verticalAlign=bottom;align=center;overflow=width;vsdxID=6;fillColor=none;gradientColor=none;strokeColor=none;spacingTop=-3;spacingBottom=-3;spacingLeft=-3;spacingRight=-3;points=[];labelBackgroundColor=none;rounded=0;html=1;whiteSpace=wrap;container=0;" vertex="1" parent="1">
          <mxGeometry x="360" y="789.11" width="130" height="53.21" as="geometry" />
        </mxCell>
        <mxCell id="Zcm5tQwCMB2YyKj0-IPv-30" value="" style="shape=image;verticalLabelPosition=bottom;verticalAlign=top;imageAspect=0;aspect=fixed;image=data:image/svg+xml,PHN2ZyB4bWxucz0iaHR0cDovL3d3dy53My5vcmcvMjAwMC9zdmciIHdpZHRoPSIzMiIgaGVpZ2h0PSIzMiIgdmlld0JveD0iMCAwIDMyIDMyIiBmaWxsPSJub25lIj4mI3hhOzxwYXRoIGQ9Ik0wIDE2QzAgNy4xNjM0NCA3LjE2MzQ0IDAgMTYgMFYwQzI0LjgzNjYgMCAzMiA3LjE2MzQ0IDMyIDE2VjE2QzMyIDI0LjgzNjYgMjQuODM2NiAzMiAxNiAzMlYzMkM3LjE2MzQ0IDMyIDAgMjQuODM2NiAwIDE2VjE2WiIgZmlsbD0iIzUyODJGRiIvPiYjeGE7PHBhdGggZmlsbC1ydWxlPSJldmVub2RkIiBjbGlwLXJ1bGU9ImV2ZW5vZGQiIGQ9Ik0xMyA4SDE4QzIxLjMgOCAyNCAxMC43IDI0IDE0VjI0SDIwVjIwSDIyVjE5SDE4LjZDMTUuNSAxOSAxMyAxNi41IDEzIDEzLjRWOFpNMTkgMTdIMjFWMTVIMTlWMTdaTTEyIDkuMDk5OThWMTMuNEMxMiAxNi44IDE0LjYgMTkuNyAxOCAyMC4xVjIwLjZDMTggMjIgMTUuOCAyMy4xIDEzIDIzLjFDMTAuMiAyMy4xIDggMjIgOCAyMC42VjExLjZDOCAxMC4zIDkuNyA5LjI5OTk4IDEyIDkuMDk5OThaIiBmaWxsPSJ3aGl0ZSIvPiYjeGE7PC9zdmc+;container=0;" vertex="1" parent="1">
          <mxGeometry x="90" y="758.84" width="47.16" height="47.16" as="geometry" />
        </mxCell>
        <mxCell id="Zcm5tQwCMB2YyKj0-IPv-38" value="" style="aspect=fixed;sketch=0;html=1;dashed=0;whitespace=wrap;verticalLabelPosition=bottom;verticalAlign=top;fillColor=#2875E2;strokeColor=#ffffff;points=[[0.005,0.63,0],[0.1,0.2,0],[0.9,0.2,0],[0.5,0,0],[0.995,0.63,0],[0.72,0.99,0],[0.5,1,0],[0.28,0.99,0]];shape=mxgraph.kubernetes.icon2;prIcon=group;container=0;" vertex="1" parent="1">
          <mxGeometry x="594" y="180" width="50" height="48" as="geometry" />
        </mxCell>
        <mxCell id="Zcm5tQwCMB2YyKj0-IPv-39" style="vsdxID=5;fillColor=none;gradientColor=none;shape=stencil(vVPLEoIgFP0aljgEVuPa6j+YRGUica6U9vdhUKk4LWzG3X0cOPdcOIilTclrgShpDOiLaGVmSsQOiFJZlQKksRFiR8TSXIMoQN+qzOU175F9dNX3/obOnSP9CUoeLktIFL8KJ4flcLZN8NhtRJiDwxsf7VwhQHjAhniCDvNONhi04UbqakSuOBQCWy6cK16MWk0rRB2U/XRKVgMlSRwl+1nyhWI+s0+Xs4KYgNvPtlBKuJvVniX4En+9yfxWVpDx2yc2+Bosl0o5fw77U0PakjMzOz4B);strokeColor=#ff5958;spacingTop=-3;spacingBottom=-3;spacingLeft=-3;spacingRight=-3;points=[];labelBackgroundColor=none;rounded=0;html=1;whiteSpace=wrap;container=0;" vertex="1" parent="1">
          <mxGeometry x="510" y="170" width="152" height="130" as="geometry" />
        </mxCell>
        <mxCell id="Zcm5tQwCMB2YyKj0-IPv-40" value="&lt;div style=&quot;font-size: 1px&quot;&gt;&lt;font style=&quot;font-size:22.58px;font-family:Arial;color:#000000;direction:ltr;letter-spacing:0px;line-height:120%;opacity:1&quot;&gt;Браузер&amp;nbsp;&lt;/font&gt;&lt;/div&gt;&lt;div style=&quot;font-size: 1px&quot;&gt;&lt;font style=&quot;font-size:22.58px;font-family:Arial;color:#000000;direction:ltr;letter-spacing:0px;line-height:120%;opacity:1&quot;&gt;пользователя&lt;/font&gt;&lt;/div&gt;" style="verticalAlign=bottom;align=center;overflow=width;vsdxID=6;fillColor=none;gradientColor=none;strokeColor=none;spacingTop=-3;spacingBottom=-3;spacingLeft=-3;spacingRight=-3;points=[];labelBackgroundColor=none;rounded=0;html=1;whiteSpace=wrap;container=0;" vertex="1" parent="1">
          <mxGeometry x="516" y="228" width="140" height="53" as="geometry" />
        </mxCell>
        <mxCell id="Zcm5tQwCMB2YyKj0-IPv-57" value="" style="group" vertex="1" connectable="0" parent="1">
          <mxGeometry x="180" y="550" width="330" height="133.71" as="geometry" />
        </mxCell>
        <mxCell id="Zcm5tQwCMB2YyKj0-IPv-8" value="" style="shape=image;verticalLabelPosition=bottom;verticalAlign=top;imageAspect=0;aspect=fixed;image=data:image/svg+xml,PHN2ZyB4bWxucz0iaHR0cDovL3d3dy53My5vcmcvMjAwMC9zdmciIHdpZHRoPSIzMiIgaGVpZ2h0PSIzMiIgdmlld0JveD0iMCAwIDMyIDMyIiBmaWxsPSJub25lIj4mI3hhOzxwYXRoIGQ9Ik0wIDE2QzAgNy4xNjM0NCA3LjE2MzQ0IDAgMTYgMFYwQzI0LjgzNjYgMCAzMiA3LjE2MzQ0IDMyIDE2VjE2QzMyIDI0LjgzNjYgMjQuODM2NiAzMiAxNiAzMlYzMkM3LjE2MzQ0IDMyIDAgMjQuODM2NiAwIDE2VjE2WiIgZmlsbD0iIzUyODJGRiIvPiYjeGE7PHBhdGggZD0iTTExLjk5NSAyNEw3LjAwMDk4IDE3LjczOEw4Ljc4MTk4IDkuOTI3TDE2IDYuNDUzTDIzLjIxOCA5LjkyOEwyNC45OTkgMTcuNzM5TDIwLjAwNSAyNEgxMS45OTVaTTIwIDEzLjE5NkwxNS45OTkgMTAuODk5TDEyIDEzLjE5NlYxOC4xTDE2IDIwLjQwMUwyMCAxOC4xVjEzLjE5NlpNMTguNzggMTMuODk2SDE4Ljc4N0wxNiAxNS40OTlMMTMuMjE0IDEzLjg5NUgxMy4yMTlMMTUuOTk5IDEyLjI5OUwxOC43OCAxMy44OTZaIiBmaWxsPSJ3aGl0ZSIvPiYjeGE7PC9zdmc+;container=0;" vertex="1" parent="Zcm5tQwCMB2YyKj0-IPv-57">
          <mxGeometry x="45.37" y="86.15" width="33.85" height="33.85" as="geometry" />
        </mxCell>
        <mxCell id="Zcm5tQwCMB2YyKj0-IPv-6" value="&lt;div style=&quot;font-size: 1px&quot;&gt;&lt;font style=&quot;font-size: 22.58px; font-family: Arial; color: rgb(0, 0, 0); direction: ltr; letter-spacing: 0px; line-height: 120%; opacity: 1;&quot;&gt;Kubernetes&lt;br&gt;&lt;/font&gt;&lt;/div&gt;&lt;div style=&quot;font-size: 1px&quot;&gt;&lt;font style=&quot;font-size: 22.58px; font-family: Arial; color: rgb(0, 0, 0); direction: ltr; letter-spacing: 0px; line-height: 120%; opacity: 1;&quot;&gt;cluster 1&lt;br&gt;&lt;/font&gt;&lt;/div&gt;" style="verticalAlign=middle;align=center;overflow=width;vsdxID=7;fillColor=none;gradientColor=none;shape=stencil(nZBLDoAgDERP0z3SIyjew0SURgSD+Lu9kMZoXLhwN9O+tukAlrNpJg1SzDH4QW/URgNYgZTkjA4UkwJUgGXng+6DX1zLfmoymdXo17xh5zmRJ6Q42BWCfc2oJfdAr+Yv+AP9Cb7OJ3H/2JG1HNGz/84klThPVCc=);strokeColor=none;points=[];labelBackgroundColor=none;rounded=0;html=1;whiteSpace=wrap;container=0;" vertex="1" parent="Zcm5tQwCMB2YyKj0-IPv-57">
          <mxGeometry x="10" width="120.00000000000001" height="86.13999999999999" as="geometry" />
        </mxCell>
        <mxCell id="Zcm5tQwCMB2YyKj0-IPv-14" value="" style="shape=image;verticalLabelPosition=bottom;verticalAlign=top;imageAspect=0;aspect=fixed;image=data:image/svg+xml,PHN2ZyB4bWxucz0iaHR0cDovL3d3dy53My5vcmcvMjAwMC9zdmciIHdpZHRoPSIzMiIgaGVpZ2h0PSIzMiIgdmlld0JveD0iMCAwIDMyIDMyIiBmaWxsPSJub25lIj4mI3hhOzxwYXRoIGQ9Ik0wIDE2QzAgNy4xNjM0NCA3LjE2MzQ0IDAgMTYgMFYwQzI0LjgzNjYgMCAzMiA3LjE2MzQ0IDMyIDE2VjE2QzMyIDI0LjgzNjYgMjQuODM2NiAzMiAxNiAzMlYzMkM3LjE2MzQ0IDMyIDAgMjQuODM2NiAwIDE2VjE2WiIgZmlsbD0iIzUyODJGRiIvPiYjeGE7PHBhdGggZD0iTTExLjk5NSAyNEw3LjAwMDk4IDE3LjczOEw4Ljc4MTk4IDkuOTI3TDE2IDYuNDUzTDIzLjIxOCA5LjkyOEwyNC45OTkgMTcuNzM5TDIwLjAwNSAyNEgxMS45OTVaTTIwIDEzLjE5NkwxNS45OTkgMTAuODk5TDEyIDEzLjE5NlYxOC4xTDE2IDIwLjQwMUwyMCAxOC4xVjEzLjE5NlpNMTguNzggMTMuODk2SDE4Ljc4N0wxNiAxNS40OTlMMTMuMjE0IDEzLjg5NUgxMy4yMTlMMTUuOTk5IDEyLjI5OUwxOC43OCAxMy44OTZaIiBmaWxsPSJ3aGl0ZSIvPiYjeGE7PC9zdmc+;container=0;" vertex="1" parent="Zcm5tQwCMB2YyKj0-IPv-57">
          <mxGeometry x="230" y="28.779999999999973" width="28.571428571428573" height="28.571428571428573" as="geometry" />
        </mxCell>
        <mxCell id="Zcm5tQwCMB2YyKj0-IPv-15" style="vsdxID=5;fillColor=none;gradientColor=none;shape=stencil(vVPLEoIgFP0aljgEVuPa6j+YRGUica6U9vdhUKk4LWzG3X0cOPdcOIilTclrgShpDOiLaGVmSsQOiFJZlQKksRFiR8TSXIMoQN+qzOU175F9dNX3/obOnSP9CUoeLktIFL8KJ4flcLZN8NhtRJiDwxsf7VwhQHjAhniCDvNONhi04UbqakSuOBQCWy6cK16MWk0rRB2U/XRKVgMlSRwl+1nyhWI+s0+Xs4KYgNvPtlBKuJvVniX4En+9yfxWVpDx2yc2+Bosl0o5fw77U0PakjMzOz4B);strokeColor=#ff5958;spacingTop=-3;spacingBottom=-3;spacingLeft=-3;spacingRight=-3;points=[];labelBackgroundColor=none;rounded=0;html=1;whiteSpace=wrap;container=0;" vertex="1" parent="Zcm5tQwCMB2YyKj0-IPv-57">
          <mxGeometry x="179.28999999999996" y="20" width="130" height="100" as="geometry" />
        </mxCell>
        <mxCell id="Zcm5tQwCMB2YyKj0-IPv-5" style="vsdxID=6;fillColor=none;gradientColor=none;shape=stencil(vVNdD4IgFP01POIQms1nq//BEpVF4q6U9u/DoFJxPdjm2/04cO65cBDL2oo3AlHSGtAX0cncVIgdEKWyrgRIYyPEjohlhQZRgr7VucsbPiCH6Krvww29O0eGE5Q8XJaSaPcqnByWw9k2wWNZRFMHhzc+SlwhQHhATDxBj3kvWwzacCN1PSFXHEqBLRcuFC8nrbYTognKfjol65GSNIn28SL5SjGf2efL2UBMwO1nWykl3M1mzxJ8ib/eZHkrG8j47RMbfA1WSKWcP8f9uSFtyZmZHZ8=);strokeColor=#5282ff;spacingTop=-3;spacingBottom=-3;spacingLeft=-3;spacingRight=-3;points=[];labelBackgroundColor=none;rounded=0;html=1;whiteSpace=wrap;container=0;" vertex="1" parent="Zcm5tQwCMB2YyKj0-IPv-57">
          <mxGeometry x="5" width="325" height="133.71" as="geometry" />
        </mxCell>
        <mxCell id="dOKFS4jaDPH2xterbuno-48" value="&lt;div style=&quot;&quot;&gt;&lt;font style=&quot;font-family: Arial; color: rgb(0, 0, 0); direction: ltr; letter-spacing: 0px; line-height: 120%; opacity: 1;&quot;&gt;&lt;font style=&quot;font-size: 18px;&quot;&gt;HPA по RPS&lt;/font&gt;&lt;br&gt;&lt;/font&gt;&lt;/div&gt;" style="verticalAlign=middle;align=center;overflow=width;vsdxID=5;fillColor=#fff2bf;gradientColor=none;shape=stencil(vVNBDsIgEHwNRwxCjHqu+g9iaUtEaBa09fdSwdpi9dBDb8vOwOwsGcQyW/FaIEqsA3MRjcxdhdgBUSp1JUA6XyF2RCwrDIgSzE3n4VzzjtlVV3PvXmjDPdLdoOQRTrvtavNqnAKXw9mDELkBIhDJaxrJZIy/YRLfbjFvpcVgHHfS6JGu4lAK7GVwoXg5gmwjRP3VjoMpqQcm9tPKs0z0Y6crWcBHqt0PN8tJspXFfmNKdpaBH8tYwML/VPjiE6dCKhXSOMTT+PlWiC47PgE=);strokeColor=none;spacingTop=-3;spacingBottom=-3;spacingLeft=-3;spacingRight=-3;points=[];labelBackgroundColor=none;rounded=0;html=1;whiteSpace=wrap;" vertex="1" parent="Zcm5tQwCMB2YyKj0-IPv-57">
          <mxGeometry x="210" y="-20" width="120" height="30" as="geometry" />
        </mxCell>
        <mxCell id="qAUOpYDgOj-pHgKQ9W4o-1" value="&lt;div style=&quot;font-size: 1px&quot;&gt;&lt;font style=&quot;font-size: 22.58px; font-family: Arial; color: rgb(0, 0, 0); direction: ltr; letter-spacing: 0px; line-height: 120%; opacity: 1;&quot;&gt;ЦОД 2&lt;br&gt;&lt;/font&gt;&lt;/div&gt;" style="verticalAlign=bottom;align=center;overflow=width;vsdxID=5;fillColor=#e3ebff;gradientColor=none;shape=stencil(vVNBDsIgEHwNRwxCjHqu+g9iaUtEaBa09fdSwdpi9dBDb8vOwOwsGcQyW/FaIEqsA3MRjcxdhdgBUSp1JUA6XyF2RCwrDIgSzE3n4VzzjtlVV3PvXmjDPdLdoOQRTrvtavNqnAKXw9mDELkBIhDJaxrJZIy/YRLfbjFvpcVgHHfS6JGu4lAK7GVwoXg5gmwjRP3VjoMpqQcm9tPKs0z0Y6crWcBHqt0PN8tJspXFfmNKdpaBH8tYwML/VPjiE6dCKhXSOMTT+PlWiC47PgE=);strokeColor=none;spacingTop=-3;spacingBottom=-3;spacingLeft=-3;spacingRight=-3;points=[];labelBackgroundColor=none;rounded=0;html=1;whiteSpace=wrap;container=0;" vertex="1" parent="1">
          <mxGeometry x="630" y="510" width="430" height="650" as="geometry" />
        </mxCell>
        <mxCell id="qAUOpYDgOj-pHgKQ9W4o-5" style="vsdxID=5;fillColor=none;gradientColor=none;shape=stencil(vVPLEoIgFP0aljgEVuPa6j+YRGUica6U9vdhUKk4LWzG3X0cOPdcOIilTclrgShpDOiLaGVmSsQOiFJZlQKksRFiR8TSXIMoQN+qzOU175F9dNX3/obOnSP9CUoeLktIFL8KJ4flcLZN8NhtRJiDwxsf7VwhQHjAhniCDvNONhi04UbqakSuOBQCWy6cK16MWk0rRB2U/XRKVgMlSRwl+1nyhWI+s0+Xs4KYgNvPtlBKuJvVniX4En+9yfxWVpDx2yc2+Bosl0o5fw77U0PakjMzOz4B);strokeColor=#ff5958;spacingTop=-3;spacingBottom=-3;spacingLeft=-3;spacingRight=-3;points=[];labelBackgroundColor=none;rounded=0;html=1;whiteSpace=wrap;container=0;" vertex="1" parent="1">
          <mxGeometry x="830.22" y="566.85" width="130" height="100" as="geometry" />
        </mxCell>
        <mxCell id="qAUOpYDgOj-pHgKQ9W4o-6" value="&lt;div style=&quot;font-size: 1px&quot;&gt;&lt;font style=&quot;font-size:22.58px;font-family:Arial;color:#000000;direction:ltr;letter-spacing:0px;line-height:120%;opacity:1&quot;&gt;InsureTech&lt;/font&gt;&lt;/div&gt;&lt;div style=&quot;font-size: 1px&quot;&gt;&lt;font style=&quot;font-size:22.58px;font-family:Arial;color:#000000;direction:ltr;letter-spacing:0px;line-height:120%;opacity:1&quot;&gt;namespace&lt;/font&gt;&lt;/div&gt;" style="verticalAlign=bottom;align=center;overflow=width;vsdxID=6;fillColor=none;gradientColor=none;strokeColor=none;spacingTop=-3;spacingBottom=-3;spacingLeft=-3;spacingRight=-3;points=[];labelBackgroundColor=none;rounded=0;html=1;whiteSpace=wrap;container=0;" vertex="1" parent="1">
          <mxGeometry x="830" y="610" width="130" height="54" as="geometry" />
        </mxCell>
        <mxCell id="qAUOpYDgOj-pHgKQ9W4o-7" style="vsdxID=5;fillColor=none;gradientColor=none;shape=stencil(vVPLEoIgFP0aljgEVuPa6j+YRGUica6U9vdhUKk4LWzG3X0cOPdcOIilTclrgShpDOiLaGVmSsQOiFJZlQKksRFiR8TSXIMoQN+qzOU175F9dNX3/obOnSP9CUoeLktIFL8KJ4flcLZN8NhtRJiDwxsf7VwhQHjAhniCDvNONhi04UbqakSuOBQCWy6cK16MWk0rRB2U/XRKVgMlSRwl+1nyhWI+s0+Xs4KYgNvPtlBKuJvVniX4En+9yfxWVpDx2yc2+Bosl0o5fw77U0PakjMzOz4B);strokeColor=#ff5958;spacingTop=-3;spacingBottom=-3;spacingLeft=-3;spacingRight=-3;points=[];labelBackgroundColor=none;rounded=0;html=1;whiteSpace=wrap;container=0;" vertex="1" parent="1">
          <mxGeometry x="846" y="910" width="130" height="105.5" as="geometry" />
        </mxCell>
        <mxCell id="qAUOpYDgOj-pHgKQ9W4o-8" value="&lt;div style=&quot;font-size: 1px&quot;&gt;&lt;font style=&quot;font-size: 22.58px; font-family: Arial; color: rgb(0, 0, 0); direction: ltr; letter-spacing: 0px; line-height: 120%; opacity: 1;&quot;&gt;PosrgreSQL&lt;br&gt;&lt;/font&gt;&lt;/div&gt;&lt;div style=&quot;font-size: 1px&quot;&gt;&lt;font style=&quot;font-size: 22.58px; font-family: Arial; color: rgb(0, 0, 0); direction: ltr; letter-spacing: 0px; line-height: 120%; opacity: 1;&quot;&gt;(replica)&lt;/font&gt;&lt;/div&gt;" style="verticalAlign=bottom;align=center;overflow=width;vsdxID=6;fillColor=none;gradientColor=none;strokeColor=none;spacingTop=-3;spacingBottom=-3;spacingLeft=-3;spacingRight=-3;points=[];labelBackgroundColor=none;rounded=0;html=1;whiteSpace=wrap;container=0;" vertex="1" parent="1">
          <mxGeometry x="846" y="955" width="130" height="53.21" as="geometry" />
        </mxCell>
        <mxCell id="qAUOpYDgOj-pHgKQ9W4o-9" value="" style="shape=image;verticalLabelPosition=bottom;verticalAlign=top;imageAspect=0;aspect=fixed;image=data:image/svg+xml,PHN2ZyB4bWxucz0iaHR0cDovL3d3dy53My5vcmcvMjAwMC9zdmciIHdpZHRoPSIzMiIgaGVpZ2h0PSIzMiIgdmlld0JveD0iMCAwIDMyIDMyIiBmaWxsPSJub25lIj4mI3hhOzxwYXRoIGQ9Ik0wIDE2QzAgNy4xNjM0NCA3LjE2MzQ0IDAgMTYgMFYwQzI0LjgzNjYgMCAzMiA3LjE2MzQ0IDMyIDE2VjE2QzMyIDI0LjgzNjYgMjQuODM2NiAzMiAxNiAzMlYzMkM3LjE2MzQ0IDMyIDAgMjQuODM2NiAwIDE2VjE2WiIgZmlsbD0iIzUyODJGRiIvPiYjeGE7PHBhdGggZmlsbC1ydWxlPSJldmVub2RkIiBjbGlwLXJ1bGU9ImV2ZW5vZGQiIGQ9Ik0xMyA4SDE4QzIxLjMgOCAyNCAxMC43IDI0IDE0VjI0SDIwVjIwSDIyVjE5SDE4LjZDMTUuNSAxOSAxMyAxNi41IDEzIDEzLjRWOFpNMTkgMTdIMjFWMTVIMTlWMTdaTTEyIDkuMDk5OThWMTMuNEMxMiAxNi44IDE0LjYgMTkuNyAxOCAyMC4xVjIwLjZDMTggMjIgMTUuOCAyMy4xIDEzIDIzLjFDMTAuMiAyMy4xIDggMjIgOCAyMC42VjExLjZDOCAxMC4zIDkuNyA5LjI5OTk4IDEyIDkuMDk5OThaIiBmaWxsPSJ3aGl0ZSIvPiYjeGE7PC9zdmc+;container=0;" vertex="1" parent="1">
          <mxGeometry x="890.5" y="914" width="36.26923076923077" height="36.26923076923077" as="geometry" />
        </mxCell>
        <mxCell id="qAUOpYDgOj-pHgKQ9W4o-14" value="" style="group" connectable="0" vertex="1" parent="1">
          <mxGeometry x="660" y="550" width="320" height="219.84999999999997" as="geometry" />
        </mxCell>
        <mxCell id="qAUOpYDgOj-pHgKQ9W4o-15" value="" style="shape=image;verticalLabelPosition=bottom;verticalAlign=top;imageAspect=0;aspect=fixed;image=data:image/svg+xml,PHN2ZyB4bWxucz0iaHR0cDovL3d3dy53My5vcmcvMjAwMC9zdmciIHdpZHRoPSIzMiIgaGVpZ2h0PSIzMiIgdmlld0JveD0iMCAwIDMyIDMyIiBmaWxsPSJub25lIj4mI3hhOzxwYXRoIGQ9Ik0wIDE2QzAgNy4xNjM0NCA3LjE2MzQ0IDAgMTYgMFYwQzI0LjgzNjYgMCAzMiA3LjE2MzQ0IDMyIDE2VjE2QzMyIDI0LjgzNjYgMjQuODM2NiAzMiAxNiAzMlYzMkM3LjE2MzQ0IDMyIDAgMjQuODM2NiAwIDE2VjE2WiIgZmlsbD0iIzUyODJGRiIvPiYjeGE7PHBhdGggZD0iTTExLjk5NSAyNEw3LjAwMDk4IDE3LjczOEw4Ljc4MTk4IDkuOTI3TDE2IDYuNDUzTDIzLjIxOCA5LjkyOEwyNC45OTkgMTcuNzM5TDIwLjAwNSAyNEgxMS45OTVaTTIwIDEzLjE5NkwxNS45OTkgMTAuODk5TDEyIDEzLjE5NlYxOC4xTDE2IDIwLjQwMUwyMCAxOC4xVjEzLjE5NlpNMTguNzggMTMuODk2SDE4Ljc4N0wxNiAxNS40OTlMMTMuMjE0IDEzLjg5NUgxMy4yMTlMMTUuOTk5IDEyLjI5OUwxOC43OCAxMy44OTZaIiBmaWxsPSJ3aGl0ZSIvPiYjeGE7PC9zdmc+;container=0;" vertex="1" parent="qAUOpYDgOj-pHgKQ9W4o-14">
          <mxGeometry x="44" y="86.15" width="33.85" height="33.85" as="geometry" />
        </mxCell>
        <mxCell id="qAUOpYDgOj-pHgKQ9W4o-16" value="&lt;div style=&quot;font-size: 1px&quot;&gt;&lt;font style=&quot;font-size: 22.58px; font-family: Arial; color: rgb(0, 0, 0); direction: ltr; letter-spacing: 0px; line-height: 120%; opacity: 1;&quot;&gt;Kubernetes&lt;br&gt;&lt;/font&gt;&lt;/div&gt;&lt;div style=&quot;font-size: 1px&quot;&gt;&lt;font style=&quot;font-size: 22.58px; font-family: Arial; color: rgb(0, 0, 0); direction: ltr; letter-spacing: 0px; line-height: 120%; opacity: 1;&quot;&gt;cluster 2&lt;br&gt;&lt;/font&gt;&lt;/div&gt;" style="verticalAlign=middle;align=center;overflow=width;vsdxID=7;fillColor=none;gradientColor=none;shape=stencil(nZBLDoAgDERP0z3SIyjew0SURgSD+Lu9kMZoXLhwN9O+tukAlrNpJg1SzDH4QW/URgNYgZTkjA4UkwJUgGXng+6DX1zLfmoymdXo17xh5zmRJ6Q42BWCfc2oJfdAr+Yv+AP9Cb7OJ3H/2JG1HNGz/84klThPVCc=);strokeColor=none;points=[];labelBackgroundColor=none;rounded=0;html=1;whiteSpace=wrap;container=0;" vertex="1" parent="qAUOpYDgOj-pHgKQ9W4o-14">
          <mxGeometry x="9.696969696969697" width="116.36363636363637" height="86.13999999999999" as="geometry" />
        </mxCell>
        <mxCell id="qAUOpYDgOj-pHgKQ9W4o-4" value="" style="shape=image;verticalLabelPosition=bottom;verticalAlign=top;imageAspect=0;aspect=fixed;image=data:image/svg+xml,PHN2ZyB4bWxucz0iaHR0cDovL3d3dy53My5vcmcvMjAwMC9zdmciIHdpZHRoPSIzMiIgaGVpZ2h0PSIzMiIgdmlld0JveD0iMCAwIDMyIDMyIiBmaWxsPSJub25lIj4mI3hhOzxwYXRoIGQ9Ik0wIDE2QzAgNy4xNjM0NCA3LjE2MzQ0IDAgMTYgMFYwQzI0LjgzNjYgMCAzMiA3LjE2MzQ0IDMyIDE2VjE2QzMyIDI0LjgzNjYgMjQuODM2NiAzMiAxNiAzMlYzMkM3LjE2MzQ0IDMyIDAgMjQuODM2NiAwIDE2VjE2WiIgZmlsbD0iIzUyODJGRiIvPiYjeGE7PHBhdGggZD0iTTExLjk5NSAyNEw3LjAwMDk4IDE3LjczOEw4Ljc4MTk4IDkuOTI3TDE2IDYuNDUzTDIzLjIxOCA5LjkyOEwyNC45OTkgMTcuNzM5TDIwLjAwNSAyNEgxMS45OTVaTTIwIDEzLjE5NkwxNS45OTkgMTAuODk5TDEyIDEzLjE5NlYxOC4xTDE2IDIwLjQwMUwyMCAxOC4xVjEzLjE5NlpNMTguNzggMTMuODk2SDE4Ljc4N0wxNiAxNS40OTlMMTMuMjE0IDEzLjg5NUgxMy4yMTlMMTUuOTk5IDEyLjI5OUwxOC43OCAxMy44OTZaIiBmaWxsPSJ3aGl0ZSIvPiYjeGE7PC9zdmc+;container=0;" vertex="1" parent="qAUOpYDgOj-pHgKQ9W4o-14">
          <mxGeometry x="220" y="30" width="27.35" height="27.35" as="geometry" />
        </mxCell>
        <mxCell id="qAUOpYDgOj-pHgKQ9W4o-22" value="" style="shape=image;verticalLabelPosition=bottom;verticalAlign=top;imageAspect=0;aspect=fixed;image=data:image/svg+xml,PHN2ZyB4bWxucz0iaHR0cDovL3d3dy53My5vcmcvMjAwMC9zdmciIHdpZHRoPSIzMiIgaGVpZ2h0PSIzMiIgdmlld0JveD0iMCAwIDMyIDMyIiBmaWxsPSJub25lIj4mI3hhOzxwYXRoIGQ9Ik0wIDE2QzAgNy4xNjM0NCA3LjE2MzQ0IDAgMTYgMFYwQzI0LjgzNjYgMCAzMiA3LjE2MzQ0IDMyIDE2VjE2QzMyIDI0LjgzNjYgMjQuODM2NiAzMiAxNiAzMlYzMkM3LjE2MzQ0IDMyIDAgMjQuODM2NiAwIDE2VjE2WiIgZmlsbD0iIzUyODJGRiIvPiYjeGE7PHBhdGggZD0iTTE3IDE3SDE5LjNDMTkuNyAxNy42IDIwLjMgMTggMjEgMThDMjIuMSAxOCAyMyAxNy4xIDIzIDE2QzIzIDE0LjkgMjIuMSAxNCAyMSAxNEMyMC4zIDE0IDE5LjYgMTQuNCAxOS4zIDE1SDE3VjExSDE5LjNDMTkuNyAxMS42IDIwLjMgMTIgMjEgMTJDMjIuMSAxMiAyMyAxMS4xIDIzIDEwQzIzIDguOSAyMi4xIDggMjEgOEMyMC4zIDggMTkuNiA4LjQgMTkuMyA5SDE3QzE1LjkgOSAxNSA5LjkgMTUgMTFWMTUuM0wxMCAxMlYxNUg3VjE3SDEwVjIwTDE1IDE2LjdWMjFDMTUgMjIuMSAxNS45IDIzIDE3IDIzSDE5LjNDMTkuNyAyMy42IDIwLjMgMjQgMjEgMjRDMjIuMSAyNCAyMyAyMy4xIDIzIDIyQzIzIDIwLjkgMjIuMSAyMCAyMSAyMEMyMC4zIDIwIDE5LjYgMjAuNCAxOS4zIDIxSDE3VjE3WiIgZmlsbD0id2hpdGUiLz4mI3hhOzwvc3ZnPg==;" vertex="1" parent="1">
          <mxGeometry x="960.22" y="214" width="46" height="46" as="geometry" />
        </mxCell>
        <mxCell id="qAUOpYDgOj-pHgKQ9W4o-17" style="vsdxID=6;fillColor=none;gradientColor=none;shape=stencil(vVNdD4IgFP01POIQms1nq//BEpVF4q6U9u/DoFJxPdjm2/04cO65cBDL2oo3AlHSGtAX0cncVIgdEKWyrgRIYyPEjohlhQZRgr7VucsbPiCH6Krvww29O0eGE5Q8XJaSaPcqnByWw9k2wWNZRFMHhzc+SlwhQHhATDxBj3kvWwzacCN1PSFXHEqBLRcuFC8nrbYTognKfjol65GSNIn28SL5SjGf2efL2UBMwO1nWykl3M1mzxJ8ib/eZHkrG8j47RMbfA1WSKWcP8f9uSFtyZmZHZ8=);strokeColor=#5282ff;spacingTop=-3;spacingBottom=-3;spacingLeft=-3;spacingRight=-3;points=[];labelBackgroundColor=none;rounded=0;html=1;whiteSpace=wrap;container=0;" vertex="1" parent="1">
          <mxGeometry x="656" y="550" width="320" height="130" as="geometry" />
        </mxCell>
        <mxCell id="dOKFS4jaDPH2xterbuno-2" value="" style="shape=image;verticalLabelPosition=bottom;verticalAlign=top;imageAspect=0;aspect=fixed;image=data:image/svg+xml,PHN2ZyB4bWxucz0iaHR0cDovL3d3dy53My5vcmcvMjAwMC9zdmciIGZpbGw9Im5vbmUiIHZpZXdCb3g9IjAgMCAzMiAzMiIgaGVpZ2h0PSIzMiIgd2lkdGg9IjMyIj4mI3hhOzxyZWN0IGZpbGw9IiM1MjgyRkYiIHJ4PSIxNiIgaGVpZ2h0PSIzMiIgd2lkdGg9IjMyIi8+JiN4YTs8cGF0aCBmaWxsPSJ3aGl0ZSIgZD0iTTggMjAuMDAyVjExSDEwLjE1QzExLjE3NSAxMSAxMS45MDcgMTEuMjI4IDEyLjM0MyAxMS42ODVDMTIuNzgxIDEyLjE0MyAxMyAxMi45MDcgMTMgMTMuOTc4VjE2LjQ5OEMxMy4wMDQgMTcuODUyIDEyLjgxMiAxOC43NzMgMTIuNDI1IDE5LjI2NEMxMi4wNCAxOS43NTQgMTEuMzExIDIwLjAwMSAxMC4yNCAyMC4wMDFMOCAyMC4wMDJaTTE0IDIwLjAwMlYxMUgxNkwxNy42OTIgMTcuNTk3VjExSDE5VjIwLjAwMUgxN0wxNS4zMSAxMy4zMzlWMjAuMDAxTDE0IDIwLjAwMlpNMjAuNDU1IDE5LjQxNUMyMC4xNTIgMTkuMDI0IDIwIDE4LjM4NiAyMCAxNy41MDRWMTcuMTYySDIxLjI4OFYxNy40MjJDMjEuMjgxIDE3Ljg0NCAyMS4zMzggMTguMTYgMjEuNDU4IDE4LjM3QzIxLjU3NiAxOC41ODEgMjEuNzU4IDE4LjY4NiAyMi4wMDEgMTguNjg2QzIyLjEwNzMgMTguNjkxNyAyMi4yMTMgMTguNjY4MSAyMi4zMDY4IDE4LjYxNzhDMjIuNDAwNiAxOC41Njc2IDIyLjQ3ODkgMTguNDkyNiAyMi41MzMgMTguNDAxQzIyLjY1MSAxOC4yMTEgMjIuNzA4IDE3LjkyNSAyMi43MDggMTcuNTQxQzIyLjcwOCAxNy4yNTYgMjIuNjM4IDE3LjAxMSAyMi40OTMgMTYuODAzQzIyLjM1MiAxNi41OTcgMjIuMTA0IDE2LjM3OCAyMS43NDggMTYuMTQ3QzIxLjEyOCAxNS43NDYgMjAuNjkzIDE1LjM1MyAyMC40NDcgMTQuOTYzQzIwLjE5OSAxNC41OCAyMC4wNzUgMTQuMTAzIDIwLjA3NSAxMy41MzNDMjAuMDc1IDEyLjY4NyAyMC4yNDEgMTIuMDUzIDIwLjU3MyAxMS42MzJDMjAuOTA3IDExLjIxMSAyMS40MDcgMTEgMjIuMDc1IDExQzIyLjc2MSAxMSAyMy4yNDUgMTEuMTk2IDIzLjUyOCAxMS41ODhDMjMuNzk1IDExLjk2IDIzLjkyNCAxMi41NTggMjMuOTIxIDEzLjM4NEwyMy45MjMgMTMuNTc2VjEzLjgzNkgyMi42MzVWMTMuNTc2QzIyLjY0MSAxMy4xMTQgMjIuNTk5IDEyLjc4OCAyMi41MDggMTIuNTk3QzIyLjQxOCAxMi40MDggMjIuMjYgMTIuMzEzIDIyLjAzNSAxMi4zMTNDMjEuOTM1NCAxMi4zMDc0IDIxLjgzNjEgMTIuMzI4OCAyMS43NDc3IDEyLjM3NTJDMjEuNjU5MyAxMi40MjE1IDIxLjU4NTEgMTIuNDkwOSAyMS41MzMgMTIuNTc2QzIxLjQyMSAxMi43NTIgMjEuMzY3IDEzLjAxNSAyMS4zNjcgMTMuMzY2QzIxLjM2NyAxMy42MzggMjEuNDMyIDEzLjg3MSAyMS41NjUgMTQuMDY2QzIxLjY5MyAxNC4yNiAyMS45MjMgMTQuNDYyIDIyLjI1MiAxNC42NzJDMjIuODk5IDE1LjA5NCAyMy4zNTIgMTUuNTA1IDIzLjYxMSAxNS45MDVDMjMuODcxIDE2LjMwNiAyNCAxNi43OTcgMjQgMTcuMzhDMjQgMTguMjU0IDIzLjgzMyAxOC45MSAyMy41MDEgMTkuMzQ1QzIzLjE2OCAxOS43ODEgMjIuNjY4IDE5Ljk5OSAyMiAxOS45OTlDMjEuMjcyIDE5Ljk5OSAyMC43NTYgMTkuODA0IDIwLjQ1NSAxOS40MTVaTTExLjEgMTguMjk1QzExLjI3NiAxOC4wNTggMTEuMzY1IDE3LjYwMiAxMS4zNjUgMTYuOTI2VjEzLjk1NEMxMS4zNjUgMTMuMzQ0IDExLjI2NyAxMi45MjUgMTEuMDY4IDEyLjY5NkMxMC44NzEgMTIuNDY2IDEwLjUwOCAxMi4zNTIgOS45OCAxMi4zNTJIOS42MzZWMTguNjQ4SDEwLjA2NkMxMC41NzcgMTguNjQ4IDEwLjkyMyAxOC41MyAxMS4xIDE4LjI5NlYxOC4yOTVaIi8+JiN4YTs8L3N2Zz4=;" vertex="1" parent="1">
          <mxGeometry x="830.22" y="214" width="45" height="45" as="geometry" />
        </mxCell>
        <mxCell id="dOKFS4jaDPH2xterbuno-6" value="" style="endArrow=classic;html=1;rounded=0;exitX=1.02;exitY=0.51;exitDx=0;exitDy=0;exitPerimeter=0;" edge="1" parent="1" source="Zcm5tQwCMB2YyKj0-IPv-39">
          <mxGeometry width="50" height="50" relative="1" as="geometry">
            <mxPoint x="710" y="310" as="sourcePoint" />
            <mxPoint x="810" y="236" as="targetPoint" />
          </mxGeometry>
        </mxCell>
        <mxCell id="dOKFS4jaDPH2xterbuno-11" value="" style="endArrow=classic;html=1;rounded=0;exitX=0.616;exitY=0.995;exitDx=0;exitDy=0;exitPerimeter=0;entryX=0.536;entryY=-0.001;entryDx=0;entryDy=0;entryPerimeter=0;edgeStyle=orthogonalEdgeStyle;" edge="1" parent="1" source="Zcm5tQwCMB2YyKj0-IPv-39" target="qAUOpYDgOj-pHgKQ9W4o-17">
          <mxGeometry width="50" height="50" relative="1" as="geometry">
            <mxPoint x="610" y="440" as="sourcePoint" />
            <mxPoint x="660" y="390" as="targetPoint" />
          </mxGeometry>
        </mxCell>
        <mxCell id="dOKFS4jaDPH2xterbuno-14" value="&lt;span style=&quot;font-size: 14px;&quot;&gt;Active failover&lt;/span&gt;" style="edgeLabel;html=1;align=center;verticalAlign=middle;resizable=0;points=[];" connectable="0" vertex="1" parent="dOKFS4jaDPH2xterbuno-11">
          <mxGeometry x="0.1352" y="-3" relative="1" as="geometry">
            <mxPoint x="-26" y="-8" as="offset" />
          </mxGeometry>
        </mxCell>
        <mxCell id="dOKFS4jaDPH2xterbuno-12" value="" style="endArrow=classic;html=1;rounded=0;exitX=0.337;exitY=1.002;exitDx=0;exitDy=0;exitPerimeter=0;entryX=0.466;entryY=0.016;entryDx=0;entryDy=0;entryPerimeter=0;edgeStyle=orthogonalEdgeStyle;" edge="1" parent="1" source="Zcm5tQwCMB2YyKj0-IPv-39" target="Zcm5tQwCMB2YyKj0-IPv-5">
          <mxGeometry width="50" height="50" relative="1" as="geometry">
            <mxPoint x="600" y="311" as="sourcePoint" />
            <mxPoint x="837" y="520" as="targetPoint" />
          </mxGeometry>
        </mxCell>
        <mxCell id="dOKFS4jaDPH2xterbuno-13" value="&lt;font style=&quot;font-size: 14px;&quot;&gt;Active failover&lt;/font&gt;" style="edgeLabel;html=1;align=center;verticalAlign=middle;resizable=0;points=[];" connectable="0" vertex="1" parent="dOKFS4jaDPH2xterbuno-12">
          <mxGeometry x="-0.1816" y="-2" relative="1" as="geometry">
            <mxPoint x="-34" as="offset" />
          </mxGeometry>
        </mxCell>
        <mxCell id="dOKFS4jaDPH2xterbuno-15" value="&lt;font style=&quot;font-size: 14px;&quot;&gt;health check&lt;/font&gt;" style="endArrow=classic;html=1;rounded=0;exitX=0.523;exitY=1.063;exitDx=0;exitDy=0;exitPerimeter=0;entryX=0.829;entryY=0.022;entryDx=0;entryDy=0;entryPerimeter=0;" edge="1" parent="1" source="dOKFS4jaDPH2xterbuno-1" target="qAUOpYDgOj-pHgKQ9W4o-17">
          <mxGeometry width="50" height="50" relative="1" as="geometry">
            <mxPoint x="610" y="440" as="sourcePoint" />
            <mxPoint x="660" y="390" as="targetPoint" />
          </mxGeometry>
        </mxCell>
        <mxCell id="dOKFS4jaDPH2xterbuno-16" value="&lt;font style=&quot;font-size: 14px;&quot;&gt;health check&lt;/font&gt;" style="endArrow=classic;html=1;rounded=0;exitX=0.506;exitY=-0.005;exitDx=0;exitDy=0;exitPerimeter=0;edgeStyle=orthogonalEdgeStyle;" edge="1" parent="1" source="dOKFS4jaDPH2xterbuno-1">
          <mxGeometry x="0.7909" width="50" height="50" relative="1" as="geometry">
            <mxPoint x="930" y="290" as="sourcePoint" />
            <mxPoint x="230" y="550" as="targetPoint" />
            <Array as="points">
              <mxPoint x="917" y="120" />
              <mxPoint x="230" y="120" />
            </Array>
            <mxPoint as="offset" />
          </mxGeometry>
        </mxCell>
        <mxCell id="dOKFS4jaDPH2xterbuno-17" value="" style="shape=image;verticalLabelPosition=bottom;verticalAlign=top;imageAspect=0;aspect=fixed;image=data:image/svg+xml,PHN2ZyB4bWxucz0iaHR0cDovL3d3dy53My5vcmcvMjAwMC9zdmciIHdpZHRoPSIzMiIgaGVpZ2h0PSIzMiIgdmlld0JveD0iMCAwIDMyIDMyIiBmaWxsPSJub25lIj4mI3hhOzxwYXRoIGQ9Ik0wIDE2QzAgNy4xNjM0NCA3LjE2MzQ0IDAgMTYgMFYwQzI0LjgzNjYgMCAzMiA3LjE2MzQ0IDMyIDE2VjE2QzMyIDI0LjgzNjYgMjQuODM2NiAzMiAxNiAzMlYzMkM3LjE2MzQ0IDMyIDAgMjQuODM2NiAwIDE2VjE2WiIgZmlsbD0iIzUyODJGRiIvPiYjeGE7PHBhdGggZD0iTTE3IDE3SDE5LjNDMTkuNyAxNy42IDIwLjMgMTggMjEgMThDMjIuMSAxOCAyMyAxNy4xIDIzIDE2QzIzIDE0LjkgMjIuMSAxNCAyMSAxNEMyMC4zIDE0IDE5LjYgMTQuNCAxOS4zIDE1SDE3VjExSDE5LjNDMTkuNyAxMS42IDIwLjMgMTIgMjEgMTJDMjIuMSAxMiAyMyAxMS4xIDIzIDEwQzIzIDguOSAyMi4xIDggMjEgOEMyMC4zIDggMTkuNiA4LjQgMTkuMyA5SDE3QzE1LjkgOSAxNSA5LjkgMTUgMTFWMTUuM0wxMCAxMlYxNUg3VjE3SDEwVjIwTDE1IDE2LjdWMjFDMTUgMjIuMSAxNS45IDIzIDE3IDIzSDE5LjNDMTkuNyAyMy42IDIwLjMgMjQgMjEgMjRDMjIuMSAyNCAyMyAyMy4xIDIzIDIyQzIzIDIwLjkgMjIuMSAyMCAyMSAyMEMyMC4zIDIwIDE5LjYgMjAuNCAxOS4zIDIxSDE3VjE3WiIgZmlsbD0id2hpdGUiLz4mI3hhOzwvc3ZnPg==;" vertex="1" parent="1">
          <mxGeometry x="402" y="760" width="46" height="46" as="geometry" />
        </mxCell>
        <mxCell id="dOKFS4jaDPH2xterbuno-18" style="vsdxID=5;fillColor=none;gradientColor=none;shape=stencil(vVPLEoIgFP0aljgEVuPa6j+YRGUica6U9vdhUKk4LWzG3X0cOPdcOIilTclrgShpDOiLaGVmSsQOiFJZlQKksRFiR8TSXIMoQN+qzOU175F9dNX3/obOnSP9CUoeLktIFL8KJ4flcLZN8NhtRJiDwxsf7VwhQHjAhniCDvNONhi04UbqakSuOBQCWy6cK16MWk0rRB2U/XRKVgMlSRwl+1nyhWI+s0+Xs4KYgNvPtlBKuJvVniX4En+9yfxWVpDx2yc2+Bosl0o5fw77U0PakjMzOz4B);strokeColor=#ff5958;spacingTop=-3;spacingBottom=-3;spacingLeft=-3;spacingRight=-3;points=[];labelBackgroundColor=none;rounded=0;html=1;whiteSpace=wrap;container=0;" vertex="1" parent="1">
          <mxGeometry x="360" y="910" width="130" height="105.5" as="geometry" />
        </mxCell>
        <mxCell id="dOKFS4jaDPH2xterbuno-19" value="&lt;div style=&quot;font-size: 1px&quot;&gt;&lt;font style=&quot;font-size: 22.58px; font-family: Arial; color: rgb(0, 0, 0); direction: ltr; letter-spacing: 0px; line-height: 120%; opacity: 1;&quot;&gt;PosrgreSQL&lt;br&gt;&lt;/font&gt;&lt;/div&gt;&lt;div style=&quot;font-size: 1px&quot;&gt;&lt;font style=&quot;font-size: 22.58px; font-family: Arial; color: rgb(0, 0, 0); direction: ltr; letter-spacing: 0px; line-height: 120%; opacity: 1;&quot;&gt;(master)&lt;/font&gt;&lt;/div&gt;" style="verticalAlign=bottom;align=center;overflow=width;vsdxID=6;fillColor=none;gradientColor=none;strokeColor=none;spacingTop=-3;spacingBottom=-3;spacingLeft=-3;spacingRight=-3;points=[];labelBackgroundColor=none;rounded=0;html=1;whiteSpace=wrap;container=0;" vertex="1" parent="1">
          <mxGeometry x="360" y="955" width="130" height="53.21" as="geometry" />
        </mxCell>
        <mxCell id="dOKFS4jaDPH2xterbuno-20" value="" style="shape=image;verticalLabelPosition=bottom;verticalAlign=top;imageAspect=0;aspect=fixed;image=data:image/svg+xml,PHN2ZyB4bWxucz0iaHR0cDovL3d3dy53My5vcmcvMjAwMC9zdmciIHdpZHRoPSIzMiIgaGVpZ2h0PSIzMiIgdmlld0JveD0iMCAwIDMyIDMyIiBmaWxsPSJub25lIj4mI3hhOzxwYXRoIGQ9Ik0wIDE2QzAgNy4xNjM0NCA3LjE2MzQ0IDAgMTYgMFYwQzI0LjgzNjYgMCAzMiA3LjE2MzQ0IDMyIDE2VjE2QzMyIDI0LjgzNjYgMjQuODM2NiAzMiAxNiAzMlYzMkM3LjE2MzQ0IDMyIDAgMjQuODM2NiAwIDE2VjE2WiIgZmlsbD0iIzUyODJGRiIvPiYjeGE7PHBhdGggZmlsbC1ydWxlPSJldmVub2RkIiBjbGlwLXJ1bGU9ImV2ZW5vZGQiIGQ9Ik0xMyA4SDE4QzIxLjMgOCAyNCAxMC43IDI0IDE0VjI0SDIwVjIwSDIyVjE5SDE4LjZDMTUuNSAxOSAxMyAxNi41IDEzIDEzLjRWOFpNMTkgMTdIMjFWMTVIMTlWMTdaTTEyIDkuMDk5OThWMTMuNEMxMiAxNi44IDE0LjYgMTkuNyAxOCAyMC4xVjIwLjZDMTggMjIgMTUuOCAyMy4xIDEzIDIzLjFDMTAuMiAyMy4xIDggMjIgOCAyMC42VjExLjZDOCAxMC4zIDkuNyA5LjI5OTk4IDEyIDkuMDk5OThaIiBmaWxsPSJ3aGl0ZSIvPiYjeGE7PC9zdmc+;container=0;" vertex="1" parent="1">
          <mxGeometry x="404.5" y="914" width="36.26923076923077" height="36.26923076923077" as="geometry" />
        </mxCell>
        <mxCell id="dOKFS4jaDPH2xterbuno-21" style="vsdxID=5;fillColor=none;gradientColor=none;shape=stencil(vVPLEoIgFP0aljgEVuPa6j+YRGUica6U9vdhUKk4LWzG3X0cOPdcOIilTclrgShpDOiLaGVmSsQOiFJZlQKksRFiR8TSXIMoQN+qzOU175F9dNX3/obOnSP9CUoeLktIFL8KJ4flcLZN8NhtRJiDwxsf7VwhQHjAhniCDvNONhi04UbqakSuOBQCWy6cK16MWk0rRB2U/XRKVgMlSRwl+1nyhWI+s0+Xs4KYgNvPtlBKuJvVniX4En+9yfxWVpDx2yc2+Bosl0o5fw77U0PakjMzOz4B);strokeColor=#ff5958;spacingTop=-3;spacingBottom=-3;spacingLeft=-3;spacingRight=-3;points=[];labelBackgroundColor=none;rounded=0;html=1;whiteSpace=wrap;container=0;" vertex="1" parent="1">
          <mxGeometry x="843.63" y="736.82" width="130" height="105.5" as="geometry" />
        </mxCell>
        <mxCell id="dOKFS4jaDPH2xterbuno-22" value="&lt;div style=&quot;&quot;&gt;&lt;font style=&quot;font-size: 18px;&quot;&gt;HAProxy&lt;/font&gt;&lt;/div&gt;" style="verticalAlign=bottom;align=center;overflow=width;vsdxID=6;fillColor=none;gradientColor=none;strokeColor=none;spacingTop=-3;spacingBottom=-3;spacingLeft=-3;spacingRight=-3;points=[];labelBackgroundColor=none;rounded=0;html=1;whiteSpace=wrap;container=0;" vertex="1" parent="1">
          <mxGeometry x="843.63" y="781.82" width="130" height="53.21" as="geometry" />
        </mxCell>
        <mxCell id="dOKFS4jaDPH2xterbuno-23" value="" style="shape=image;verticalLabelPosition=bottom;verticalAlign=top;imageAspect=0;aspect=fixed;image=data:image/svg+xml,PHN2ZyB4bWxucz0iaHR0cDovL3d3dy53My5vcmcvMjAwMC9zdmciIHdpZHRoPSIzMiIgaGVpZ2h0PSIzMiIgdmlld0JveD0iMCAwIDMyIDMyIiBmaWxsPSJub25lIj4mI3hhOzxwYXRoIGQ9Ik0wIDE2QzAgNy4xNjM0NCA3LjE2MzQ0IDAgMTYgMFYwQzI0LjgzNjYgMCAzMiA3LjE2MzQ0IDMyIDE2VjE2QzMyIDI0LjgzNjYgMjQuODM2NiAzMiAxNiAzMlYzMkM3LjE2MzQ0IDMyIDAgMjQuODM2NiAwIDE2VjE2WiIgZmlsbD0iIzUyODJGRiIvPiYjeGE7PHBhdGggZD0iTTE3IDE3SDE5LjNDMTkuNyAxNy42IDIwLjMgMTggMjEgMThDMjIuMSAxOCAyMyAxNy4xIDIzIDE2QzIzIDE0LjkgMjIuMSAxNCAyMSAxNEMyMC4zIDE0IDE5LjYgMTQuNCAxOS4zIDE1SDE3VjExSDE5LjNDMTkuNyAxMS42IDIwLjMgMTIgMjEgMTJDMjIuMSAxMiAyMyAxMS4xIDIzIDEwQzIzIDguOSAyMi4xIDggMjEgOEMyMC4zIDggMTkuNiA4LjQgMTkuMyA5SDE3QzE1LjkgOSAxNSA5LjkgMTUgMTFWMTUuM0wxMCAxMlYxNUg3VjE3SDEwVjIwTDE1IDE2LjdWMjFDMTUgMjIuMSAxNS45IDIzIDE3IDIzSDE5LjNDMTkuNyAyMy42IDIwLjMgMjQgMjEgMjRDMjIuMSAyNCAyMyAyMy4xIDIzIDIyQzIzIDIwLjkgMjIuMSAyMCAyMSAyMEMyMC4zIDIwIDE5LjYgMjAuNCAxOS4zIDIxSDE3VjE3WiIgZmlsbD0id2hpdGUiLz4mI3hhOzwvc3ZnPg==;" vertex="1" parent="1">
          <mxGeometry x="885.63" y="752.71" width="46" height="46" as="geometry" />
        </mxCell>
        <mxCell id="dOKFS4jaDPH2xterbuno-26" value="" style="endArrow=classic;html=1;rounded=0;entryX=0.517;entryY=0.009;entryDx=0;entryDy=0;entryPerimeter=0;exitX=0.796;exitY=0.897;exitDx=0;exitDy=0;exitPerimeter=0;" edge="1" parent="1" source="qAUOpYDgOj-pHgKQ9W4o-17" target="dOKFS4jaDPH2xterbuno-21">
          <mxGeometry width="50" height="50" relative="1" as="geometry">
            <mxPoint x="580" y="730" as="sourcePoint" />
            <mxPoint x="630" y="680" as="targetPoint" />
          </mxGeometry>
        </mxCell>
        <mxCell id="dOKFS4jaDPH2xterbuno-29" value="" style="endArrow=classic;html=1;rounded=0;entryX=0.517;entryY=0.009;entryDx=0;entryDy=0;entryPerimeter=0;exitX=0.796;exitY=0.897;exitDx=0;exitDy=0;exitPerimeter=0;" edge="1" parent="1">
          <mxGeometry width="50" height="50" relative="1" as="geometry">
            <mxPoint x="909.72" y="842" as="sourcePoint" />
            <mxPoint x="909.72" y="910" as="targetPoint" />
          </mxGeometry>
        </mxCell>
        <mxCell id="dOKFS4jaDPH2xterbuno-30" value="" style="endArrow=classic;html=1;rounded=0;entryX=0.517;entryY=0.009;entryDx=0;entryDy=0;entryPerimeter=0;exitX=0.796;exitY=0.897;exitDx=0;exitDy=0;exitPerimeter=0;" edge="1" parent="1">
          <mxGeometry width="50" height="50" relative="1" as="geometry">
            <mxPoint x="424.5" y="846" as="sourcePoint" />
            <mxPoint x="424.5" y="914" as="targetPoint" />
          </mxGeometry>
        </mxCell>
        <mxCell id="dOKFS4jaDPH2xterbuno-31" value="" style="endArrow=classic;html=1;rounded=0;exitX=0.508;exitY=1.007;exitDx=0;exitDy=0;exitPerimeter=0;edgeStyle=orthogonalEdgeStyle;" edge="1" parent="1" source="dOKFS4jaDPH2xterbuno-18">
          <mxGeometry width="50" height="50" relative="1" as="geometry">
            <mxPoint x="580" y="930" as="sourcePoint" />
            <mxPoint x="910" y="1010" as="targetPoint" />
            <Array as="points">
              <mxPoint x="426" y="1040" />
              <mxPoint x="910" y="1040" />
            </Array>
          </mxGeometry>
        </mxCell>
        <mxCell id="dOKFS4jaDPH2xterbuno-32" value="&lt;font style=&quot;font-size: 14px;&quot;&gt;репликация&lt;/font&gt;" style="edgeLabel;html=1;align=center;verticalAlign=middle;resizable=0;points=[];" connectable="0" vertex="1" parent="dOKFS4jaDPH2xterbuno-31">
          <mxGeometry x="-0.2676" y="1" relative="1" as="geometry">
            <mxPoint x="67" as="offset" />
          </mxGeometry>
        </mxCell>
        <mxCell id="dOKFS4jaDPH2xterbuno-33" value="" style="endArrow=classic;html=1;rounded=0;entryX=-0.006;entryY=0.173;entryDx=0;entryDy=0;entryPerimeter=0;edgeStyle=orthogonalEdgeStyle;" edge="1" parent="1" target="qAUOpYDgOj-pHgKQ9W4o-8">
          <mxGeometry width="50" height="50" relative="1" as="geometry">
            <mxPoint x="490" y="816" as="sourcePoint" />
            <mxPoint x="630" y="790" as="targetPoint" />
            <Array as="points">
              <mxPoint x="491" y="816" />
              <mxPoint x="668" y="816" />
              <mxPoint x="668" y="964" />
            </Array>
          </mxGeometry>
        </mxCell>
        <mxCell id="dOKFS4jaDPH2xterbuno-34" value="" style="endArrow=classic;html=1;rounded=0;" edge="1" parent="1" source="qAUOpYDgOj-pHgKQ9W4o-1">
          <mxGeometry width="50" height="50" relative="1" as="geometry">
            <mxPoint x="580" y="840" as="sourcePoint" />
            <mxPoint x="630" y="790" as="targetPoint" />
          </mxGeometry>
        </mxCell>
        <mxCell id="dOKFS4jaDPH2xterbuno-35" value="" style="endArrow=classic;html=1;rounded=0;exitX=0.012;exitY=0.857;exitDx=0;exitDy=0;exitPerimeter=0;edgeStyle=orthogonalEdgeStyle;entryX=1.006;entryY=0.113;entryDx=0;entryDy=0;entryPerimeter=0;" edge="1" parent="1" source="dOKFS4jaDPH2xterbuno-22" target="dOKFS4jaDPH2xterbuno-19">
          <mxGeometry width="50" height="50" relative="1" as="geometry">
            <mxPoint x="580" y="840" as="sourcePoint" />
            <mxPoint x="630" y="790" as="targetPoint" />
            <Array as="points">
              <mxPoint x="600" y="827" />
              <mxPoint x="600" y="961" />
            </Array>
          </mxGeometry>
        </mxCell>
        <mxCell id="dOKFS4jaDPH2xterbuno-42" style="vsdxID=6;fillColor=none;gradientColor=none;shape=stencil(vVNdD4IgFP01POIQms1nq//BEpVF4q6U9u/DoFJxPdjm2/04cO65cBDL2oo3AlHSGtAX0cncVIgdEKWyrgRIYyPEjohlhQZRgr7VucsbPiCH6Krvww29O0eGE5Q8XJaSaPcqnByWw9k2wWNZRFMHhzc+SlwhQHhATDxBj3kvWwzacCN1PSFXHEqBLRcuFC8nrbYTognKfjol65GSNIn28SL5SjGf2efL2UBMwO1nWykl3M1mzxJ8ib/eZHkrG8j47RMbfA1WSKWcP8f9uSFtyZmZHZ8=);strokeColor=#5282ff;spacingTop=-3;spacingBottom=-3;spacingLeft=-3;spacingRight=-3;points=[];labelBackgroundColor=none;rounded=0;html=1;whiteSpace=wrap;container=0;" vertex="1" parent="1">
          <mxGeometry x="70" y="720" width="930" height="350" as="geometry" />
        </mxCell>
        <mxCell id="dOKFS4jaDPH2xterbuno-43" value="&lt;font style=&quot;font-size: 18px;&quot;&gt;Patroni&lt;br&gt;claster&lt;/font&gt;" style="text;html=1;align=center;verticalAlign=middle;whiteSpace=wrap;rounded=0;" vertex="1" parent="1">
          <mxGeometry x="83.57999999999998" y="827" width="60" height="30" as="geometry" />
        </mxCell>
        <mxCell id="dOKFS4jaDPH2xterbuno-44" value="&lt;font style=&quot;background-color: light-dark(#ffffff, var(--ge-dark-color, #121212));&quot;&gt;&lt;font style=&quot;&quot;&gt;&lt;font style=&quot;&quot;&gt;&lt;font style=&quot;&quot;&gt;&lt;font style=&quot;&quot;&gt;&lt;span style=&quot;font-family: &amp;quot;YS Text&amp;quot;, sans-serif; white-space-collapse: preserve;&quot;&gt;&lt;font style=&quot;font-size: 18px;&quot;&gt;Требования к отказоустойчивости системы крайне высокие: RTO — 45 мин., RPO — 15 мин. Согласно требованиям бизнеса, доступность приложения должна быть равна 99,9%.&lt;br&gt;&lt;br&gt;В качестве &lt;b&gt;стратегии масштабирования и отказоустойчивости&lt;/b&gt; предлагается использовать горизонтальное масштабирование - &lt;b&gt;HPA по RPS&lt;/b&gt; (для расчета кастомных метрик будет использоваться Prometheus). HPA позволит приложению сохранить стабильную работу в условиях изменяющихся нагрузок.&lt;br&gt;&lt;br&gt;В качестве &lt;/font&gt;&lt;/span&gt;&lt;span style=&quot;font-family: &amp;quot;YS Text&amp;quot;, sans-serif; font-size: 18px; white-space-collapse: preserve;&quot;&gt;&lt;b&gt;фейловер-стратегии&lt;/b&gt; п&lt;/span&gt;&lt;span style=&quot;font-family: &amp;quot;YS Text&amp;quot;, sans-serif; white-space-collapse: preserve;&quot;&gt;&lt;font style=&quot;font-size: 18px;&quot;&gt;редлагается использовать &lt;b&gt;Active-Active с георезервированием.&lt;/b&gt; При этом в двух ЦОД будут развёрнуты независимые кластеры Kubernetes. &lt;/font&gt;&lt;/span&gt;&lt;span style=&quot;font-family: &amp;quot;YS Text&amp;quot;, sans-serif; font-size: 18px; white-space-collapse: preserve;&quot;&gt;Этот подход снижает зависимость от сетевой связанности между ЦОД и от внутренних недостатков фейловер-механизмов в Kubernetes&lt;br&gt;&lt;br&gt;&lt;/span&gt;&lt;/font&gt;&lt;span style=&quot;font-family: &amp;quot;YS Text&amp;quot;, sans-serif; font-size: 18px; white-space-collapse: preserve;&quot;&gt;Для &lt;b&gt;балансировки нагрузки&lt;/b&gt;, которая обеспечит распределение трафика между сервисами и географически распредёленными серверами, будет использован &lt;/span&gt;&lt;/font&gt;&lt;span style=&quot;font-family: &amp;quot;YS Text&amp;quot;, sans-serif; font-size: 18px; white-space-collapse: preserve;&quot;&gt;&lt;b&gt;Global Server Load Balancer&lt;/b&gt;. Стратегии выбора &lt;/span&gt;&lt;span style=&quot;font-family: &amp;quot;YS Text&amp;quot;, sans-serif; font-size: 18px; white-space-collapse: preserve;&quot;&gt;GSLB подходящего ЦОД могут основываться на географии пользователя, текущей загрузке ЦОД, статусе здоровья серверов в каждом ЦОД и других параметрах.&lt;br&gt;&lt;br&gt;&lt;/span&gt;&lt;/font&gt;&lt;span style=&quot;font-family: &amp;quot;YS Text&amp;quot;, sans-serif; font-size: 18px; white-space-collapse: preserve;&quot;&gt;Для &lt;b&gt;базы данных&lt;/b&gt; планируется использовать конфигурацию развёртывания &lt;b&gt;PostgreSQL Patroni&lt;/b&gt;, которая &lt;/span&gt;&lt;/font&gt;&lt;span style=&quot;font-family: &amp;quot;YS Text&amp;quot;, sans-serif; font-size: 18px; white-space-collapse: preserve;&quot;&gt;позволит добиться высокой доступности и отказоустойчивости распределённого кластера PostgreSQL&lt;/span&gt;&lt;/font&gt;" style="text;html=1;align=left;verticalAlign=middle;whiteSpace=wrap;rounded=0;" vertex="1" parent="1">
          <mxGeometry x="123.8" y="1240" width="896.42" height="350" as="geometry" />
        </mxCell>
        <mxCell id="dOKFS4jaDPH2xterbuno-49" value="&lt;div style=&quot;&quot;&gt;&lt;font style=&quot;font-family: Arial; color: rgb(0, 0, 0); direction: ltr; letter-spacing: 0px; line-height: 120%; opacity: 1;&quot;&gt;&lt;font style=&quot;font-size: 18px;&quot;&gt;HPA по RPS&lt;/font&gt;&lt;br&gt;&lt;/font&gt;&lt;/div&gt;" style="verticalAlign=middle;align=center;overflow=width;vsdxID=5;fillColor=#fff2bf;gradientColor=none;shape=stencil(vVNBDsIgEHwNRwxCjHqu+g9iaUtEaBa09fdSwdpi9dBDb8vOwOwsGcQyW/FaIEqsA3MRjcxdhdgBUSp1JUA6XyF2RCwrDIgSzE3n4VzzjtlVV3PvXmjDPdLdoOQRTrvtavNqnAKXw9mDELkBIhDJaxrJZIy/YRLfbjFvpcVgHHfS6JGu4lAK7GVwoXg5gmwjRP3VjoMpqQcm9tPKs0z0Y6crWcBHqt0PN8tJspXFfmNKdpaBH8tYwML/VPjiE6dCKhXSOMTT+PlWiC47PgE=);strokeColor=none;spacingTop=-3;spacingBottom=-3;spacingLeft=-3;spacingRight=-3;points=[];labelBackgroundColor=none;rounded=0;html=1;whiteSpace=wrap;" vertex="1" parent="1">
          <mxGeometry x="656" y="530" width="120" height="30" as="geometry" />
        </mxCell>
        <mxCell id="dOKFS4jaDPH2xterbuno-45" value="Custom &#xa;metrics &#xa;server &#xa;(Prometheus)" style="shape=image;verticalLabelPosition=bottom;verticalAlign=top;imageAspect=0;aspect=fixed;image=data:image/svg+xml,PHN2ZyB4bWxucz0iaHR0cDovL3d3dy53My5vcmcvMjAwMC9zdmciIGZpbGw9Im5vbmUiIHZpZXdCb3g9IjAgMCAzMiAzMiIgaGVpZ2h0PSIzMiIgd2lkdGg9IjMyIj4mI3hhOzxyZWN0IGZpbGw9IiM1MjgyRkYiIHJ4PSIxNiIgaGVpZ2h0PSIzMiIgd2lkdGg9IjMyIi8+JiN4YTs8cGF0aCBmaWxsPSJ3aGl0ZSIgZD0iTTkgMTcuNUM5IDIyIDEyLjUgMjQgMTYgMjRDMTkuNSAyNCAyMyAyMiAyMyAxNy41QzIzIDEzLjkgMjAgMTAgMTggOEMxNi41IDkuNSAxNSAxMS41IDE0LjUgMTMuNUMxNCAxMiAxMy41IDExLjI1IDEyLjUgMTBDMTAuNSAxMS41IDkgMTUgOSAxNy41Wk0xNiAyMkMxNC43NSAyMiAxNCAyMS4yNSAxNCAyMEMxNCAxOC43NSAxNC41IDE3LjUgMTYgMTZDMTcuNSAxNy41IDE4IDE4Ljc1IDE4IDIwQzE4IDIxLjI1IDE3LjI1IDIyIDE2IDIyWiIgY2xpcC1ydWxlPSJldmVub2RkIiBmaWxsLXJ1bGU9ImV2ZW5vZGQiLz4mI3hhOzwvc3ZnPg==;" vertex="1" parent="1">
          <mxGeometry x="530" y="530" width="42" height="42" as="geometry" />
        </mxCell>
        <mxCell id="dOKFS4jaDPH2xterbuno-50" value="Custom &#xa;metrics &#xa;server &#xa;(Prometheus)" style="shape=image;verticalLabelPosition=bottom;verticalAlign=top;imageAspect=0;aspect=fixed;image=data:image/svg+xml,PHN2ZyB4bWxucz0iaHR0cDovL3d3dy53My5vcmcvMjAwMC9zdmciIGZpbGw9Im5vbmUiIHZpZXdCb3g9IjAgMCAzMiAzMiIgaGVpZ2h0PSIzMiIgd2lkdGg9IjMyIj4mI3hhOzxyZWN0IGZpbGw9IiM1MjgyRkYiIHJ4PSIxNiIgaGVpZ2h0PSIzMiIgd2lkdGg9IjMyIi8+JiN4YTs8cGF0aCBmaWxsPSJ3aGl0ZSIgZD0iTTkgMTcuNUM5IDIyIDEyLjUgMjQgMTYgMjRDMTkuNSAyNCAyMyAyMiAyMyAxNy41QzIzIDEzLjkgMjAgMTAgMTggOEMxNi41IDkuNSAxNSAxMS41IDE0LjUgMTMuNUMxNCAxMiAxMy41IDExLjI1IDEyLjUgMTBDMTAuNSAxMS41IDkgMTUgOSAxNy41Wk0xNiAyMkMxNC43NSAyMiAxNCAyMS4yNSAxNCAyMEMxNCAxOC43NSAxNC41IDE3LjUgMTYgMTZDMTcuNSAxNy41IDE4IDE4Ljc1IDE4IDIwQzE4IDIxLjI1IDE3LjI1IDIyIDE2IDIyWiIgY2xpcC1ydWxlPSJldmVub2RkIiBmaWxsLXJ1bGU9ImV2ZW5vZGQiLz4mI3hhOzwvc3ZnPg==;" vertex="1" parent="1">
          <mxGeometry x="1000" y="530" width="42" height="42" as="geometry" />
        </mxCell>
      </root>
    </mxGraphModel>
  </diagram>
</mxfile>
